<?xml version="1.0" encoding="iso-8859-1"?>
<!-- Generator: Adobe Illustrator 21.0.0, SVG Export Plug-In . SVG Version: 6.00 Build 0)  -->
<svg version="1.1" xmlns="http://www.w3.org/2000/svg" xmlns:xlink="http://www.w3.org/1999/xlink" x="0px" y="0px"
	 width="595.28px" height="595.28px" viewBox="0 0 595.28 595.28" enable-background="new 0 0 595.28 595.28" xml:space="preserve">
<g id="Layer_1">
</g>
<g id="Layer_2">
	<g>
		<defs>
			<rect id="SVGID_9_" y="1.554" width="595.28" height="595.28"/>
		</defs>
		<clipPath id="SVGID_2_">
			<use xlink:href="#SVGID_9_"  overflow="visible"/>
		</clipPath>
		<g clip-path="url(#SVGID_2_)">
			<path fill="#D3B97D" d="M162.69,316.056c5.059-12.117,15.622-20.902,23.613-31.321c6.309-8.226,11.04-17.529,15.733-26.773
				c10.913-21.491,21.825-42.982,32.738-64.472c0.883-1.74,1.745-3.927,0.613-5.516c-1.064-1.493-3.235-1.513-5.063-1.376
				c-22.101,1.65-44.176,4.066-66.35,4.511c-11.006,0.221-22.113-1.338-33.043-1.048c-12.747,0.339-12.712,0.284-7.433,11.762
				C141.135,240.176,158.705,272.826,162.69,316.056z"/>
			<path fill="#ED9191" d="M270.148,235.445c19.205,18.868,35.41,40.785,47.82,64.677c34.37-44.246,61.57-94.048,80.22-146.88
				c-1.409,3.991-42.864,10.824-48.678,12.509c-17.435,5.053-34.702,10.684-51.764,16.878c-12.42,4.509-37.531,9.337-46.349,19.599
				C240.649,214.735,261.374,226.825,270.148,235.445z"/>
			<path fill="#7EB78C" d="M488.964,257.851c-30.853-34.017-38.633-84.228-69.309-118.405c-0.383-0.426,49.055-22.444,54.091-23.879
				c14.367-4.091,29.027-6.278,30.637,11.617c1.798,19.989-6.206,45.092-8.575,65.17
				C493.234,214.154,490.953,235.989,488.964,257.851z"/>
			<path fill="#ED9191" d="M99.491,485.647c4.911-29.597,26.838-53.534,50.675-71.751c23.837-18.217,50.639-32.734,72.109-53.69
				c-43.669-9.901-86.596-23.071-128.304-39.363c-6.13-2.395-12.2-4.986-16.575-10.05c11.001-4.006,8.665,16.193,9.239,22.989
				c1.441,17.036,2.884,34.072,4.326,51.108C93.805,418.476,96.648,452.061,99.491,485.647z"/>
			<path fill="#BCDCE7" d="M278.168,438.758c8.325,12.004,17.066,25.997,13.664,40.204c4.246-27.617,29.761-46.136,53.127-61.456
				c11.55-7.573,23.296-15.24,36.491-19.321c-13.067-5.657-27.748-5.747-41.967-6.491c-36.526-1.91-69.996-14.298-105.452-18.942
				C238.729,393.881,265.496,420.487,278.168,438.758z"/>
			<path fill="#7EB78C" d="M492.989,400.443c-34.019,4.232-67.716,10.688-101.385,17.14c11.438,7.893,20.47,18.896,26.495,31.377
				c4.192,8.683,8.515,30.378,22.112,27.507c10.004-2.112,22.922-27.227,28.376-35.274
				C472.047,436.089,488.763,400.969,492.989,400.443z"/>
			<g>
				<path fill="none" stroke="#231F20" stroke-width="8.9473" stroke-miterlimit="10" d="M48.175,176.919
					c61.077,12.547,122.937,25.159,185.217,22.133c113.295-5.504,217.057-61.761,316.304-116.681
					c-3.391,5.094-6.783,10.188-10.174,15.282"/>
				<path fill="none" stroke="#231F20" stroke-width="8.9473" stroke-miterlimit="10" d="M60.218,275.973
					c4.818,14.577,18.222,24.374,31.182,32.606c105.546,67.045,232.226,96.106,357.26,97.372
					c36.019,0.365,73.776-1.969,104.655-20.515c-5.446,0.218-10.896-2.85-13.534-7.619"/>
				<path fill="none" stroke="#231F20" stroke-width="8.9473" stroke-miterlimit="10" d="M504.495,107.114
					c-5.104,45.2-11.116,103.888-16.221,149.087c-20.889-35.016-49.845-76.257-83.946-98.609
					c-33.097,44.49-61.81,103.279-85.64,153.347c-18.85-34.242-84.704-106.215-84.704-106.215s-39.404,94.501-78.544,116.423
					c-11.233-44.525-25.975-88.165-44.044-130.381"/>
				<path fill="none" stroke="#231F20" stroke-width="8.9473" stroke-miterlimit="10" d="M487.088,404.728
					c-21.251,37.45-42.501,59.817-63.752,97.267c6.429-38.753-22.602-64.44-45.978-96.01c-25.454,43.268-87.48,44.914-100.72,93.336
					c-6.898-42.558-28.341-99.219-59.891-128.602c-8.947,24.488-33.312,56.173-57.122,66.793s-49.577,19.257-67.803,37.899
					c-7.244-51.096-10.858-124.447-7.308-175.931"/>
			</g>
		</g>
	</g>
</g>
</svg>
